<svg xmlns="http://www.w3.org/2000/svg" xmlns:xlink="http://www.w3.org/1999/xlink" width="1440" height="327.996" viewBox="0 0 1440 327.996"><defs><style>.a,.d,.j{fill:none;}.a,.d{stroke:#b4b3b4;}.a{stroke-width:1.5px;}.ac,.ad,.ae,.af,.ag,.ai,.b{fill:#08243e;}.b{font-size:14px;}.af,.ah,.b{font-family:Helvetica;}.ac,.ae,.ai,.ak,.b{isolation:isolate;}.ac,.ad,.c{font-family:PingFangSC-Regular, PingFang SC;}.d{stroke-width:0.733px;}.e{fill:#4280ef;}.f{fill:#a8c1e2;}.g{fill:#efaf00;}.h{fill:#f2d684;}.i,.u{fill:#fff;}.j,.u{stroke:#ececec;stroke-width:0.366px;}.k{fill:#c12a27;}.l{fill:#631015;}.m{fill:#911f23;}.n{fill:#df511f;}.o{fill:#7db834;}.p{fill:#1d9cd7;}.q{fill:#eab11c;}.r{fill:#4fa948;}.s{fill:#040000;}.t{fill:#d2132c;}.v{fill:#304690;}.w{fill:#24599b;}.x{fill:#1d549f;}.y{fill:#366fb1;}.z{fill:#5480be;}.aa{fill:#80a1d2;}.ab{fill:#386daf;}.ac,.ad,.ae,.af,.ag{font-size:12px;}.ae,.ag,.ai,.aj{font-family:Roboto-Regular, Roboto;}.ai{font-size:9px;}.al{fill:url(#y);}.am{fill:url(#z);}.an{fill:url(#aa);}.ao{fill:url(#ac);}.ap{fill:#2d0a3d;}.aq{fill:#d7effc;}.ar{fill:#127dc2;}.as{fill:#ffb547;}.at{fill:#009d4e;}.au{fill:#e5862f;}.av{fill:#1e2d63;}.aw{fill:url(#ah);}.ax{fill:url(#ai);}.ay{fill:#192a4b;}.az{fill:#0080cc;}.ba{fill:#9cc813;}.bb{filter:url(#al);}.bc{filter:url(#aj);}.bd{filter:url(#af);}.be{filter:url(#ad);}.bf{filter:url(#w);}.bg{filter:url(#u);}.bh{filter:url(#s);}.bi{filter:url(#q);}.bj{filter:url(#o);}.bk{filter:url(#m);}.bl{filter:url(#k);}.bm{filter:url(#i);}.bn{filter:url(#g);}.bo{filter:url(#e);}.bp{filter:url(#c);}.bq{filter:url(#a);}</style><filter id="a" x="128.457" y="129.389" width="71.965" height="71.965" filterUnits="userSpaceOnUse"><feOffset dx="2.835" dy="2.835" input="SourceAlpha"/><feGaussianBlur stdDeviation="2.126" result="b"/><feFlood flood-color="#e5e5e5" flood-opacity="0.749"/><feComposite operator="in" in2="b"/><feComposite in="SourceGraphic"/></filter><filter id="c" x="374.457" y="129.389" width="71.965" height="71.965" filterUnits="userSpaceOnUse"><feOffset dx="2.835" dy="2.835" input="SourceAlpha"/><feGaussianBlur stdDeviation="2.126" result="d"/><feFlood flood-color="#e5e5e5" flood-opacity="0.749"/><feComposite operator="in" in2="d"/><feComposite in="SourceGraphic"/></filter><filter id="e" x="210.457" y="129.389" width="71.965" height="71.965" filterUnits="userSpaceOnUse"><feOffset dx="2.835" dy="2.835" input="SourceAlpha"/><feGaussianBlur stdDeviation="2.126" result="f"/><feFlood flood-color="#e5e5e5" flood-opacity="0.749"/><feComposite operator="in" in2="f"/><feComposite in="SourceGraphic"/></filter><filter id="g" x="292.457" y="129.389" width="71.965" height="71.965" filterUnits="userSpaceOnUse"><feOffset dx="2.835" dy="2.835" input="SourceAlpha"/><feGaussianBlur stdDeviation="2.126" result="h"/><feFlood flood-color="#e5e5e5" flood-opacity="0.749"/><feComposite operator="in" in2="h"/><feComposite in="SourceGraphic"/></filter><filter id="i" x="457.457" y="129.389" width="71.965" height="71.965" filterUnits="userSpaceOnUse"><feOffset dx="2.835" dy="2.835" input="SourceAlpha"/><feGaussianBlur stdDeviation="2.126" result="j"/><feFlood flood-color="#e5e5e5" flood-opacity="0.749"/><feComposite operator="in" in2="j"/><feComposite in="SourceGraphic"/></filter><filter id="k" x="533.817" y="125.104" width="77.576" height="77.576" filterUnits="userSpaceOnUse"><feOffset dy="3" input="SourceAlpha"/><feGaussianBlur stdDeviation="3" result="l"/><feFlood flood-opacity="0.161"/><feComposite operator="in" in2="l"/><feComposite in="SourceGraphic"/></filter><filter id="m" x="616" y="125.287" width="77.209" height="77.209" filterUnits="userSpaceOnUse"><feOffset dy="3" input="SourceAlpha"/><feGaussianBlur stdDeviation="3" result="n"/><feFlood flood-opacity="0.161"/><feComposite operator="in" in2="n"/><feComposite in="SourceGraphic"/></filter><filter id="o" x="785.457" y="129.389" width="71.965" height="71.965" filterUnits="userSpaceOnUse"><feOffset dx="2.835" dy="2.835" input="SourceAlpha"/><feGaussianBlur stdDeviation="2.126" result="p"/><feFlood flood-color="#e5e5e5" flood-opacity="0.749"/><feComposite operator="in" in2="p"/><feComposite in="SourceGraphic"/></filter><filter id="q" x="867.457" y="129.389" width="71.965" height="71.965" filterUnits="userSpaceOnUse"><feOffset dx="2.835" dy="2.835" input="SourceAlpha"/><feGaussianBlur stdDeviation="2.126" result="r"/><feFlood flood-color="#e5e5e5" flood-opacity="0.749"/><feComposite operator="in" in2="r"/><feComposite in="SourceGraphic"/></filter><filter id="s" x="1031.457" y="129.389" width="71.965" height="71.965" filterUnits="userSpaceOnUse"><feOffset dx="2.835" dy="2.835" input="SourceAlpha"/><feGaussianBlur stdDeviation="2.126" result="t"/><feFlood flood-color="#e5e5e5" flood-opacity="0.749"/><feComposite operator="in" in2="t"/><feComposite in="SourceGraphic"/></filter><filter id="u" x="46.457" y="129.389" width="71.965" height="71.965" filterUnits="userSpaceOnUse"><feOffset dx="2.835" dy="2.835" input="SourceAlpha"/><feGaussianBlur stdDeviation="2.126" result="v"/><feFlood flood-color="#e5e5e5" flood-opacity="0.749"/><feComposite operator="in" in2="v"/><feComposite in="SourceGraphic"/></filter><filter id="w" x="703.457" y="129.389" width="71.965" height="71.965" filterUnits="userSpaceOnUse"><feOffset dx="2.835" dy="2.835" input="SourceAlpha"/><feGaussianBlur stdDeviation="2.126" result="x"/><feFlood flood-color="#e5e5e5" flood-opacity="0.749"/><feComposite operator="in" in2="x"/><feComposite in="SourceGraphic"/></filter><linearGradient id="y" x1="0.918" y1="0.088" x2="0.105" y2="0.933" gradientUnits="objectBoundingBox"><stop offset="0" stop-color="#14367e"/><stop offset="0.27" stop-color="#0b559c"/><stop offset="0.537" stop-color="#056cb2"/><stop offset="0.787" stop-color="#017bc0"/><stop offset="1" stop-color="#0080c5"/></linearGradient><linearGradient id="z" x1="0.151" y1="0.023" x2="0.92" y2="0.958" xlink:href="#y"/><linearGradient id="aa" x1="0" y1="0.5" x2="1" y2="0.5" xlink:href="#y"/><linearGradient id="ac" x1="0.715" y1="0.725" x2="0.065" y2="0.138" xlink:href="#y"/><filter id="ad" x="949.457" y="129.389" width="71.965" height="71.965" filterUnits="userSpaceOnUse"><feOffset dx="2.835" dy="2.835" input="SourceAlpha"/><feGaussianBlur stdDeviation="2.126" result="ae"/><feFlood flood-color="#e5e5e5" flood-opacity="0.749"/><feComposite operator="in" in2="ae"/><feComposite in="SourceGraphic"/></filter><filter id="af" x="1114.457" y="129.389" width="71.965" height="71.965" filterUnits="userSpaceOnUse"><feOffset dx="2.835" dy="2.835" input="SourceAlpha"/><feGaussianBlur stdDeviation="2.126" result="ag"/><feFlood flood-color="#e5e5e5" flood-opacity="0.749"/><feComposite operator="in" in2="ag"/><feComposite in="SourceGraphic"/></filter><linearGradient id="ah" x1="-931.633" y1="28.485" x2="-931.511" y2="28.405" gradientUnits="objectBoundingBox"><stop offset="0" stop-color="#3c80c0"/><stop offset="1" stop-color="#1e2d63"/></linearGradient><linearGradient id="ai" x1="-325.868" y1="14.564" x2="-325.871" y2="14.526" xlink:href="#ah"/><filter id="aj" x="1196.457" y="129.457" width="71.965" height="71.965" filterUnits="userSpaceOnUse"><feOffset dx="2.835" dy="2.835" input="SourceAlpha"/><feGaussianBlur stdDeviation="2.126" result="ak"/><feFlood flood-color="#e5e5e5" flood-opacity="0.749"/><feComposite operator="in" in2="ak"/><feComposite in="SourceGraphic"/></filter><filter id="al" x="1278.457" y="129.457" width="71.965" height="71.965" filterUnits="userSpaceOnUse"><feOffset dx="2.835" dy="2.835" input="SourceAlpha"/><feGaussianBlur stdDeviation="2.126" result="am"/><feFlood flood-color="#e5e5e5" flood-opacity="0.749"/><feComposite operator="in" in2="am"/><feComposite in="SourceGraphic"/></filter></defs><g transform="translate(0 -1461)"><path class="a" d="M-.054,354.331h1440" transform="translate(0.054 1270.766)"/><g transform="translate(90.992 1461)"><text class="b" transform="translate(0 15)"><tspan x="0" y="0">2016</tspan><tspan class="c" y="0">年</tspan><tspan y="0">12</tspan><tspan class="c" y="0">月</tspan></text></g><g transform="translate(253.481 1461)"><text class="b" transform="translate(0 15)"><tspan x="0" y="0">2017</tspan><tspan class="c" y="0">年</tspan><tspan y="0">10</tspan><tspan class="c" y="0">月</tspan></text></g><g transform="translate(418.331 1461)"><text class="b" transform="translate(0 15)"><tspan x="0" y="0">2018</tspan><tspan class="c" y="0">年</tspan><tspan y="0">3</tspan><tspan class="c" y="0">月</tspan></text></g><g transform="translate(582.9 1461)"><text class="b" transform="translate(0 15)"><tspan x="0" y="0">2019</tspan><tspan class="c" y="0">年</tspan><tspan y="0">11</tspan><tspan class="c" y="0">月</tspan></text></g><path class="d" d="M64.064,345.562V194.221" transform="translate(16.886 1280.537)"/><path class="d" d="M298.526,344.559V194.221" transform="translate(109.761 1280.537)"/><path class="d" d="M415.735,345.562V194.221" transform="translate(157.128 1280.537)"/><path class="d" d="M650.874,345.562V194.221" transform="translate(250.983 1280.537)"/><path class="d" d="M121.355,363.967V478.2" transform="translate(40.832 1261.13)"/><path class="d" d="M239.268,363.967V477.2" transform="translate(86.536 1262.131)"/><path class="d" d="M356.792,363.967V479.762" transform="translate(133.876 1259.57)"/><path class="d" d="M473.85,363.967V479.762" transform="translate(181.041 1259.57)"/><g transform="translate(75.664 1466.299)"><rect class="e" width="10.573" height="10.573"/><rect class="f" width="4.229" height="4.229" transform="translate(3.172 3.172)"/></g><g transform="translate(403 1466.299)"><rect class="e" width="10.573" height="10.573"/><rect class="f" width="4.229" height="4.229" transform="translate(3.172 3.172)"/></g><g transform="translate(320.517 1730.532)"><rect class="e" width="10.573" height="10.573"/><rect class="f" width="4.229" height="4.229" transform="translate(3.172 3.172)"/></g><g transform="translate(649.604 1730.532)"><rect class="e" width="10.573" height="10.573"/><rect class="f" width="4.229" height="4.229" transform="translate(3.172 3.172)"/></g><g transform="translate(979.051 1626.099)"><path class="d" d="M708.824,363.967V473.688" transform="translate(-703.538 -363.967)"/><g transform="translate(0 104.433)"><rect class="e" width="10.573" height="10.573"/><rect class="f" width="4.229" height="4.229" transform="translate(3.172 3.172)"/></g></g><g transform="translate(567.576 1466.299)"><rect class="e" width="10.573" height="10.573"/><rect class="f" width="4.229" height="4.229" transform="translate(3.172 3.172)"/></g><g transform="translate(896.57 1466.299)"><rect class="e" width="10.573" height="10.573"/><rect class="f" width="4.229" height="4.229" transform="translate(3.172 3.172)"/></g><g transform="translate(1224.601 1466.299)"><path class="d" d="M884.861,345.56V194.221" transform="translate(-879.574 -185.762)"/><rect class="e" width="10.573" height="10.573"/><rect class="f" width="4.229" height="4.229" transform="translate(3.172 3.172)"/></g><g transform="translate(1059.741 1466.299)"><path class="d" d="M767.713,345.562V194.221" transform="translate(-762.427 -185.762)"/><rect class="e" width="10.573" height="10.573"/><rect class="f" width="4.229" height="4.229" transform="translate(3.172 3.172)"/></g><g transform="translate(156.371 1730.972)"><rect class="g" width="10.573" height="10.573"/><rect class="h" width="4.229" height="4.229" transform="translate(3.172 3.172)"/></g><g transform="translate(-18.852)"><path class="d" d="M181.7,345.562V194.221" transform="translate(80.561 1280.537)"/><g transform="translate(257.006 1466.299)"><rect class="g" width="10.573" height="10.573"/><rect class="h" width="4.229" height="4.229" transform="translate(3.172 3.172)"/></g></g><g transform="translate(485.381 1730.972)"><rect class="g" width="10.573" height="10.573"/><rect class="h" width="4.229" height="4.229" transform="translate(3.172 3.172)"/></g><path class="d" d="M591.907,363.967V478.2" transform="translate(226.018 1261.129)"/><g transform="translate(812.638 1730.972)"><rect class="g" width="10.573" height="10.573"/><rect class="h" width="4.229" height="4.229" transform="translate(3.172 3.172)"/></g><g transform="translate(132 1593.933)"><g class="bq" transform="matrix(1, 0, 0, 1, -132, -132.93)"><circle class="i" cx="29.605" cy="29.605" r="29.605" transform="translate(132 132.93)"/></g><circle class="j" cx="29.34" cy="29.34" r="29.34" transform="translate(0.264 0.264)"/><g transform="translate(8.313 17.78)"><path class="k" d="M134.246,344.415s-5.627,3.773-12.232,8.193l5.238,13.784h10.835Z" transform="translate(-101.274 -344.415)"/><path class="l" d="M126.319,346.333l-18.678,19.21c.179-.045,11.427-7.557,20.735-13.784Z" transform="translate(-107.641 -343.565)"/><path class="m" d="M107.644,363.878h25.977l-5.238-13.784C119.071,356.321,107.823,363.831,107.644,363.878Z" transform="translate(-107.64 -341.9)"/></g></g><g transform="translate(378 1593.933)"><g class="bp" transform="matrix(1, 0, 0, 1, -378, -132.93)"><circle class="i" cx="29.605" cy="29.605" r="29.605" transform="translate(378 132.93)"/></g><circle class="j" cx="29.34" cy="29.34" r="29.34" transform="translate(0.264 0.264)"/><g transform="translate(15.293 16.131)"><rect class="n" width="13.446" height="13.403"/><rect class="o" width="13.446" height="13.403" transform="translate(15.173)"/><rect class="p" width="13.446" height="13.403" transform="translate(0 15.229)"/><rect class="q" width="13.446" height="13.403" transform="translate(15.173 15.229)"/></g></g><g transform="translate(214 1593.933)"><g class="bo" transform="matrix(1, 0, 0, 1, -214, -132.93)"><circle class="i" cx="29.605" cy="29.605" r="29.605" transform="translate(214 132.93)"/></g><circle class="j" cx="29.34" cy="29.34" r="29.34" transform="translate(0.264 0.264)"/><g transform="translate(15.289 15.072)"><path class="r" d="M171.118,342.538v26.156l3.643-3.643V342.538Z" transform="translate(-171.118 -342.538)"/><path class="r" d="M176.079,342.538v18.914l3.643-3.643V342.538Z" transform="translate(-168.921 -342.538)"/><path class="r" d="M181.038,342.538v11.829l3.645-3.643v-8.186Z" transform="translate(-166.724 -342.538)"/><g transform="translate(2.475 10.676)"><path class="r" d="M198.991,363.5H172.833l3.645-3.643h22.513Z" transform="translate(-172.833 -345.543)"/><path class="r" d="M196.767,358.54H177.853L181.5,354.9h15.271Z" transform="translate(-170.609 -347.74)"/><path class="r" d="M194.591,353.58H182.762l3.643-3.643h8.186Z" transform="translate(-168.435 -349.937)"/></g><rect class="r" width="7.125" height="7.125" transform="translate(21.506 0.006)"/></g></g><g transform="translate(296 1593.933)"><g class="bn" transform="matrix(1, 0, 0, 1, -296, -132.93)"><circle class="i" cx="29.605" cy="29.605" r="29.605" transform="translate(296 132.93)"/></g><circle class="j" cx="29.34" cy="29.34" r="29.34" transform="translate(0.264 0.264)"/><g transform="translate(12.661 16.699)"><g transform="translate(0.71)"><path class="s" d="M241.5,359.534c-.306-.039-.615-.065-.916-.124a7.487,7.487,0,0,1-2.059-.671.22.22,0,0,0-.2.032,1.208,1.208,0,0,0-.274.341c-.107.218-.247.162-.424.111-.211-.061-.134-.211-.121-.332l.316-2.933c0-.04.012-.078.019-.141.105.01.2.02.293.027.149.009.212.071.25.229a3.089,3.089,0,0,0,2.915,2.488,3.708,3.708,0,0,0,1.571-.123,2.989,2.989,0,0,0,1.926-2.892,2.548,2.548,0,0,0-.846-2.009c-.595-.528-1.24-1-1.874-1.48-.747-.561-1.553-1.056-2.255-1.667a3.844,3.844,0,0,1-1.3-3.607,3.532,3.532,0,0,1,2.873-2.871,5.692,5.692,0,0,1,3.759.423,3.739,3.739,0,0,0,.3-.342.378.378,0,0,1,.511-.153.281.281,0,0,1,.043.029l-.351,3.036c-.061,0-.105-.01-.151-.009-.253.012-.354-.081-.381-.358a1.707,1.707,0,0,0-1.633-1.7,4.185,4.185,0,0,0-1.381.027,2.02,2.02,0,0,0-1.345,3.066,4.394,4.394,0,0,0,1.439,1.439c.8.556,1.625,1.085,2.417,1.656a7.047,7.047,0,0,1,1.635,1.6,4.28,4.28,0,0,1-2.164,6.555,11.873,11.873,0,0,1-1.453.31l-.212.043Z" transform="translate(-224.424 -343.621)"/><path class="s" d="M228.436,344.673v-.5h.325l7.825-.019a2.042,2.042,0,0,0,.528-.061.687.687,0,0,0,.4-.211c.167-.276.394-.221.662-.2l-.355,3.268h-.573c-.006-.105-.012-.221-.019-.33a1.313,1.313,0,0,0-1.221-1.4.83.83,0,0,0-.084,0c-1.2-.065-2.407-.017-3.622-.017v5.632h.388c.587,0,1.175.007,1.762,0a1.154,1.154,0,0,0,1.261-1.017c.039-.157.069-.317.105-.479h.47v3.98h-.469c-.033-.169-.065-.351-.105-.528a1.019,1.019,0,0,0-1.084-.926c-.771-.029-1.544-.006-2.338-.006v4.736a6.622,6.622,0,0,0,.087,1.068.985.985,0,0,0,1.017.952h.025c.137.016.276.026.429.039v.54h-5.418v-.528c.26-.035.511-.059.756-.107a.815.815,0,0,0,.691-.671,4.3,4.3,0,0,0,.105-.869q.011-5.491,0-10.981a1.193,1.193,0,0,0-1.014-1.349,1.139,1.139,0,0,0-.3,0Z" transform="translate(-228.432 -343.666)"/><path class="s" d="M254.864,343.743l-.355,3.189h-.485c-.039-.244-.064-.485-.115-.721a1.111,1.111,0,0,0-1.1-1.023c-.811-.05-1.626-.012-2.463-.012v11.142a7.469,7.469,0,0,0,.079,1.19c.124.769.4,1.007,1.175,1.091.1.01.192.017.3.027v.543h-5.35v-.538c.18-.02.351-.033.518-.056a.914.914,0,0,0,.872-.733,9.344,9.344,0,0,0,.17-1.641c.014-3.587.007-7.173.007-10.76v-.289h-.825c-.635.012-1.268.012-1.9.049a1.08,1.08,0,0,0-.968.714,6.754,6.754,0,0,0-.229.668c-.118.408-.128.423-.593.326l.352-3.172a.515.515,0,0,1,.459.188.737.737,0,0,0,.423.189,3.177,3.177,0,0,0,.586.026q3.889,0,7.777-.006a3.849,3.849,0,0,0,.729-.066.617.617,0,0,0,.356-.189C254.447,343.683,254.632,343.717,254.864,343.743Z" transform="translate(-221.714 -343.64)"/><path class="s" d="M236.387,354.128v.457h-2.776v-.446c.014-.01.027-.026.04-.026.726.014,1.048-.44,1.25-1.056.55-1.658,1.107-3.312,1.659-4.969l.394-1.177a.5.5,0,0,0-.216-.677.485.485,0,0,0-.2-.056c-.064-.016-.127-.027-.2-.043v-.463a1.209,1.209,0,0,1,.143-.016h1.957a.212.212,0,0,1,.247.167q1.186,3.47,2.382,6.933a4.866,4.866,0,0,0,.212.547,1.109,1.109,0,0,0,1,.805v.473h-3.786v-.459c.156-.023.3-.036.444-.065.329-.066.463-.231.391-.553-.105-.482-.247-.958-.384-1.434a.227.227,0,0,0-.176-.105q-1.247-.011-2.495,0a.248.248,0,0,0-.192.121c-.128.385-.257.771-.351,1.163-.131.545.014.746.564.853C236.318,354.111,236.35,354.118,236.387,354.128Zm1.108-6.388h-.049l-1.048,3.42h2.221Z" transform="translate(-226.138 -342.786)"/></g><g transform="translate(0 17.886)"><path class="s" d="M250.295,363.368c-.038-.065-.072-.133-.105-.2l-3.081-5.143a1.183,1.183,0,0,0-.069-.105.376.376,0,0,0-.019.069q0,2.091.01,4.185a1.43,1.43,0,0,0,.053.348.486.486,0,0,0,.469.4l.2.022v.248H243.8v-.238q.18-.03.355-.078a.27.27,0,0,0,.216-.313l0-.017a6.126,6.126,0,0,0-.317-1.221c-.075-.26-.079-.258-.358-.258h-1.828a.122.122,0,0,0-.141.1v.007c-.127.442-.268.877-.384,1.322-.061.231.043.365.28.423.062.014.127.022.2.033v.253h-1.827v-.25a.246.246,0,0,1,.045-.009.652.652,0,0,0,.667-.456c.139-.362.257-.732.372-1.1q.708-2.24,1.41-4.485a.311.311,0,0,0-.169-.406l-.006,0a1.926,1.926,0,0,0-.242-.087v-.211c.04,0,.078-.007.115-.007h1.28a.123.123,0,0,1,.143.1v0q.913,2.9,1.833,5.808.082.236.186.463a.447.447,0,0,0,.105.162c.088.078.19.2.281.2a.413.413,0,0,0,.382-.283,1.985,1.985,0,0,0,.088-.512c.012-.482.006-.965.006-1.447V357.2a.525.525,0,0,0-.061-.2c-.027-.046-.056-.089-.088-.133a.738.738,0,0,0-.74-.44v-.242h1.57a.2.2,0,0,1,.2.111q1.327,2.26,2.659,4.518c.022.035.043.069.074.121a.3.3,0,0,0,.016-.062q0-1.887-.007-3.773v-.046c-.026-.446-.192-.609-.635-.629a.349.349,0,0,1-.082-.007V356.2h3.743v.211c-.013.007-.019.014-.026.014-.346.036-.462.2-.371.528a2.86,2.86,0,0,0,.159.449c.312.681.629,1.358.945,2.036.02.045.04.088.071.149.026-.052.046-.085.062-.12.354-.758.71-1.512,1.058-2.271a1.483,1.483,0,0,0,.115-.423c.026-.2-.062-.3-.266-.339a1.543,1.543,0,0,0-.154-.016V356.2h1.76v.219c-.442.038-.645.356-.817.7q-.712,1.446-1.414,2.9a.341.341,0,0,0-.04.14q0,1.026.012,2.05a.965.965,0,0,0,.02.17.563.563,0,0,0,.566.563h.033l.1.009v.253H252.41v-.248l.177-.022a.5.5,0,0,0,.492-.43,3.23,3.23,0,0,0,.056-.577c.007-.491,0-.98,0-1.47a.408.408,0,0,0-.036-.165c-.53-1.111-1.049-2.219-1.581-3.333a3.55,3.55,0,0,0-.31-.472.12.12,0,0,0-.17-.024.652.652,0,0,0-.332.563c-.013.133-.017.266-.017.4v4.617c0,.364.033.729.052,1.092,0,.068.006.136.009.212l-.343.045Zm-8.407-2.788h1.939l-.991-3h-.025Z" transform="translate(-222.602 -356.005)"/><path class="s" d="M239.593,362.942v.253h-2.568v-.25c.1-.013.19-.022.283-.042a.5.5,0,0,0,.394-.473,1.92,1.92,0,0,0,.022-.341q-.065-2.022-.133-4.045a.055.055,0,0,0-.022-.043c-.1.281-.206.564-.31.846-.379,1.058-.763,2.1-1.14,3.159-.087.242-.15.494-.218.74a.107.107,0,0,1-.105.091c-.107,0-.2.013-.307.022l-1.758-4.845h-.022c0,.026-.007.053-.007.082q-.052,1.959-.1,3.919a1.979,1.979,0,0,0,.038.423.562.562,0,0,0,.53.478c.063.009.127.014.2.023v.253h-2.229v-.253c.088-.01.172-.014.254-.03a.711.711,0,0,0,.606-.756c.035-.812.064-1.625.1-2.437.033-.854.065-1.708.105-2.561a.688.688,0,0,0-.543-.711c-.068-.016-.136-.023-.212-.035v-.232h1.574a.152.152,0,0,1,.173.117l1.693,4.456c.017.048.038.1.068.172l.068-.169q.868-2.234,1.733-4.467a.14.14,0,0,1,.156-.105h1.421v.231l-.1.01a.545.545,0,0,0-.557.532.387.387,0,0,0,0,.04c0,.27.012.54.022.81q.084,2.084.172,4.167c0,.149.012.3.029.443.051.359.177.475.54.515Z" transform="translate(-226.08 -356.011)"/><path class="s" d="M240.045,362.941v.25h-2.568v-.248l.2-.025a.5.5,0,0,0,.472-.41,1.666,1.666,0,0,0,.051-.4v-4.926a1.665,1.665,0,0,0-.027-.293.491.491,0,0,0-.5-.463c-.061-.006-.121-.006-.193-.01v-.227c.032,0,.061-.007.091-.007.762,0,1.524,0,2.286.016a4.042,4.042,0,0,1,1.136.18,1.839,1.839,0,0,1,1.4,2.071,2.2,2.2,0,0,1-1.923,2.073,7.193,7.193,0,0,1-.863.074c-.105.007-.2,0-.31,0a.165.165,0,0,0-.016.045c0,.556.007,1.11.016,1.664a.866.866,0,0,0,.027.192.507.507,0,0,0,.485.423C239.881,362.925,239.957,362.931,240.045,362.941Zm-.762-2.843c.234-.01.462-.013.688-.033a1.279,1.279,0,0,0,1.2-1.026,3.021,3.021,0,0,0,.01-1.423,1.1,1.1,0,0,0-.86-.876,2.089,2.089,0,0,0-.336-.062c-.234-.02-.468-.027-.7-.042Z" transform="translate(-223.717 -356.009)"/><path class="s" d="M233.846,356.11c-.053.5-.105.99-.157,1.48-.006.059-.03.079-.085.075s-.127.019-.146-.079a1.356,1.356,0,0,0-.268-.609,1.237,1.237,0,0,0-.773-.423,2.615,2.615,0,0,0-2.2.489A2.81,2.81,0,0,0,229.2,358.8a4.383,4.383,0,0,0,.242,2.571,2.548,2.548,0,0,0,2.762,1.55,1.937,1.937,0,0,0,1.336-.853c.072-.105.137-.212.211-.317l.229.1-.535,1.437a3.32,3.32,0,0,0-1.12.058,4.331,4.331,0,0,1-2.636-.439,3.087,3.087,0,0,1-1.538-1.871,4.022,4.022,0,0,1,.066-2.768,3.379,3.379,0,0,1,2.411-2.059,4.5,4.5,0,0,1,2.7.128.113.113,0,0,0,.154-.04v0c.022-.032.053-.056.072-.089C233.618,356.09,233.719,356.08,233.846,356.11Z" transform="translate(-227.94 -356.061)"/><path class="s" d="M229.474,359.277a2.149,2.149,0,0,1,1.553-2.134,2.1,2.1,0,0,1,2.61,1.4,2.131,2.131,0,0,1,.082.444,2.186,2.186,0,0,1-.97,2.149,2.1,2.1,0,0,1-3.239-1.48C229.49,359.535,229.486,359.4,229.474,359.277Zm3.288-.15a2.518,2.518,0,0,0-.19-.96,1.07,1.07,0,0,0-.641-.657,1.024,1.024,0,0,0-1.294.646v0a3.136,3.136,0,0,0-.176,1.355,2.394,2.394,0,0,0,.228.968.989.989,0,0,0,.974.587.951.951,0,0,0,.886-.625,3.11,3.11,0,0,0,.215-1.316Z" transform="translate(-227.261 -355.621)"/></g></g></g><g transform="translate(461 1593.933)"><g class="bm" transform="matrix(1, 0, 0, 1, -461, -132.93)"><circle class="i" cx="29.605" cy="29.605" r="29.605" transform="translate(461 132.93)"/></g><circle class="j" cx="29.34" cy="29.34" r="29.34" transform="translate(0.264 0.264)"/><g transform="translate(11.434 11.201)"><path class="t" d="M344.375,358.229a18.406,18.406,0,1,1,18.375,18.438c-.152,0-.3,0-.456-.007A18.317,18.317,0,0,1,344.375,358.229Zm16.477,1.733.361-.459a6.44,6.44,0,0,1,1.579,1.052c.919,1.124,1.7,2.366,2.553,3.542a5.325,5.325,0,0,0,4.5,2.19,6.4,6.4,0,0,0,6.231-5.426,6.277,6.277,0,0,0-4.564-7.068,1.982,1.982,0,0,1-1.554-1.463,7.648,7.648,0,0,0-14.483.26,1.519,1.519,0,0,1-1.271,1.146,6.351,6.351,0,0,0,3.082,12.323l.179-.048a18.063,18.063,0,0,0,3.02-1.478,23.889,23.889,0,0,0,2.952,3.159,3.032,3.032,0,0,0,4.076-.7,3.131,3.131,0,0,1-3.136-1.906c-.472-.776-1.036-1.483-1.554-2.226-.665-.965-1.316-1.932-1.973-2.895Z" transform="translate(-344.375 -339.855)"/><path class="t" d="M357.083,355.633c.035,3.2-1.463,4.964-3.916,4.8a3.57,3.57,0,0,1-3.428-3.708,3.609,3.609,0,0,1,.062-.544c.361-2.459,2.349-3.33,5.909-2.515-.623-2.615-.111-4.835,2.351-6.208a4.545,4.545,0,0,1,5.131.3,4.856,4.856,0,0,1,1.87,5.786,14.074,14.074,0,0,1,3.182-.209,3.433,3.433,0,0,1,2.782,3.817,3.55,3.55,0,0,1-3.2,3.257,2.892,2.892,0,0,1-2.883-1.235c-.456-.648-.919-1.28-1.359-1.934-1.623-2.41-3.237-2.711-5.5-1.022Z" transform="translate(-342 -336.775)"/></g></g><g transform="translate(528.368 1577.441)"><g transform="translate(14.632 14.846)"><g class="bl" transform="matrix(1, 0, 0, 1, -543, -131.29)"><circle class="u" cx="29.605" cy="29.605" r="29.605" transform="translate(543 131.29)"/></g></g><g transform="translate(20.993 41.27)"><path class="s" d="M403.2,355.258c.183-.423.343-.792.5-1.163.3-.7.587-1.4.889-2.092a2.356,2.356,0,0,1,4.053-.733c.02.02.046.036.084.066a3.384,3.384,0,0,1,2.13-.91,2.474,2.474,0,0,1,2.071.925,3.425,3.425,0,0,1,1.756-.889,2.444,2.444,0,0,1,2.895,1.887,2.468,2.468,0,0,1,.052.564c-.027,1.222,0,2.444-.007,3.667a1.041,1.041,0,0,1-.9,1.179.992.992,0,0,1-1.137-.821.941.941,0,0,1-.013-.18c-.022-.413-.007-.828-.007-1.242,0-.747.017-1.495-.007-2.242a1.036,1.036,0,0,0-1.4-1.025,1.009,1.009,0,0,0-.755,1.046v3.091a3.373,3.373,0,0,1-.022.483,1,1,0,0,1-.987.9.954.954,0,0,1-1.017-.846,3.747,3.747,0,0,1-.042-.635c0-1.01.017-2.02,0-3.029a1.022,1.022,0,0,0-.971-1.071,1.043,1.043,0,0,0-.4.062,1,1,0,0,0-.763,1.036c-.007,1.071,0,2.141-.007,3.212a2.031,2.031,0,0,1-.076.6,1.008,1.008,0,0,1-1.916-.045,2.113,2.113,0,0,1-.062-.538v-3.7a.643.643,0,0,0-.01-.27c-.064-.12-.153-.274-.264-.307-.084-.025-.264.1-.317.195-.195.365-.354.749-.528,1.126-.465,1.009-.926,2.02-1.4,3.027a4,4,0,0,1-.375.657,1.269,1.269,0,0,1-1.768.309,1.257,1.257,0,0,1-.293-.287,2.711,2.711,0,0,1-.317-.517q-1.139-2.446-2.263-4.9a.975.975,0,0,1,1.257-1.335,1.5,1.5,0,0,1,.573.623c.556,1.235,1.071,2.488,1.6,3.733A4.235,4.235,0,0,0,403.2,355.258Z" transform="translate(-399.502 -350.405)"/><path class="s" d="M417.465,352.22c-.279.792-.541,1.532-.8,2.273q-.461,1.316-.921,2.63c-.1.286-.24.518-.586.53-.293.006-.5-.163-.626-.522q-1.032-2.866-2.062-5.731c-.024-.066-.049-.133-.068-.2a.494.494,0,0,1,.3-.631l.012,0a.5.5,0,0,1,.651.28l0,.006c.1.212.162.434.238.655q.725,2.089,1.449,4.179c.03.085.064.17.121.325.183-.53.346-.987.508-1.452.411-1.183.82-2.366,1.234-3.548.144-.411.423-.593.755-.434a.873.873,0,0,1,.387.457c.547,1.531,1.072,3.066,1.6,4.607.036.105.078.2.139.359.175-.489.332-.923.486-1.361L421.552,351a.892.892,0,0,1,.17-.317.458.458,0,0,1,.61-.084.471.471,0,0,1,.2.629q-.47,1.312-.944,2.623-.576,1.6-1.154,3.19c-.023.066-.045.134-.074.2a.6.6,0,0,1-.582.408.569.569,0,0,1-.556-.437q-.377-1.071-.747-2.146-.448-1.286-.9-2.574C417.555,352.413,417.519,352.347,417.465,352.22Z" transform="translate(-393.802 -350.356)"/><path class="s" d="M424.586,356.626a3.234,3.234,0,0,1-2.6,1.069,3.992,3.992,0,0,1-1.423-.371,1.872,1.872,0,0,1-1.092-1.874,1.954,1.954,0,0,1,1.173-1.805,4.786,4.786,0,0,1,2.682-.317c.41.04.814.136,1.221.2a1.7,1.7,0,0,0-1.306-2.027,1.588,1.588,0,0,0-.248-.036,3.814,3.814,0,0,0-2.029.247.362.362,0,0,1-.055.023.468.468,0,0,1-.622-.211.448.448,0,0,1,.215-.6.528.528,0,0,1,.051-.02,4.8,4.8,0,0,1,2.2-.385,4.5,4.5,0,0,1,.667.066,2.412,2.412,0,0,1,2.151,2.527c.029,1.332.009,2.665.006,4a.485.485,0,0,1-.429.537l-.061,0c-.3,0-.481-.182-.5-.53C424.579,356.964,424.586,356.794,424.586,356.626Zm-1.729-2.606c-.394.029-.669.04-.939.075a2.2,2.2,0,0,0-.47.126,1.3,1.3,0,0,0-.935,1.248,1.32,1.32,0,0,0,.934,1.283,2.249,2.249,0,0,0,3.154-2.2c-.007-.182-.076-.255-.237-.281Z" transform="translate(-390.661 -350.355)"/><path class="s" d="M428.31,354.484a2.431,2.431,0,0,0,3.623,2.046,4.476,4.476,0,0,0,.675-.462c.264-.2.491-.219.675-.027s.153.452-.1.687a3.6,3.6,0,0,1-4.635-5.515,3.13,3.13,0,0,1,5.086,2.026,4.683,4.683,0,0,1,.065.6c.019.475-.147.642-.623.644Zm4.34-.778a2.2,2.2,0,0,0-2.078-2.325h-.017a2.326,2.326,0,0,0-2.238,2.326Z" transform="translate(-387.203 -350.361)"/><path class="s" d="M425.614,352.057a3.275,3.275,0,0,1,1.9-1.459,2.223,2.223,0,0,1,.424-.071.5.5,0,0,1,.569.413v.01a.514.514,0,0,1-.387.616l-.046.007c-.177.04-.362.061-.534.115a2.728,2.728,0,0,0-1.9,2.587c-.043.856-.019,1.714-.023,2.571,0,.54-.176.8-.528.794s-.514-.25-.514-.773v-5.6c0-.492.175-.747.508-.752.352,0,.535.255.537.76C425.617,351.534,425.614,351.8,425.614,352.057Z" transform="translate(-388.395 -350.358)"/></g></g><g transform="translate(-23)"><g transform="translate(648 1592.287)"><g class="bk" transform="matrix(1, 0, 0, 1, -625, -131.29)"><circle class="i" cx="29.605" cy="29.605" r="29.605" transform="translate(625 131.29)"/></g><circle class="j" cx="29.34" cy="29.34" r="29.34" transform="translate(0.264 0.264)"/></g><g transform="translate(660 1603.486)"><path class="v" d="M493.041,354.063c-3.384-3.323-6.757-6.5-9.966-9.837a7.458,7.458,0,0,0-7.9-2.036,17.526,17.526,0,1,0,15.219,30.794A16.76,16.76,0,0,0,497.1,359.6c-5.639-1.245-8.35-.495-12.078,3.211-1.771,1.758-3.548,3.5-4.939,4.88L471.1,358.96l8.968-8.854c1.385,1.467,2.847,3.069,4.363,4.615C488.75,359.117,488.758,359.109,493.041,354.063Zm-12.9-13.685c6.075,2.9,9.288,8.617,14.253,12.417.551-.527,1.02-1.055,1.568-1.483,1.491-1.164,1.613-2.2.066-3.527-1.758-1.5-3.268-3.288-4.983-4.847a10.85,10.85,0,0,0-10.907-2.56Z" transform="translate(-462.117 -339.854)"/><path class="v" d="M493.033,353.468c-4.281,5.047-4.291,5.055-8.614.657-1.518-1.545-2.977-3.149-4.364-4.615l-8.968,8.852,8.985,8.733c1.391-1.374,3.17-3.121,4.939-4.88,3.727-3.705,6.44-4.454,12.077-3.211a16.758,16.758,0,0,1-6.714,13.383,17.521,17.521,0,1,1-15.219-30.794,7.458,7.458,0,0,1,7.9,2.036C486.275,346.964,489.649,350.145,493.033,353.468Z" transform="translate(-462.108 -339.258)"/><path class="v" d="M474.61,340.378a10.847,10.847,0,0,1,10.906,2.56c1.714,1.554,3.226,3.342,4.983,4.847,1.553,1.323,1.424,2.359-.066,3.527-.547.429-1.017.957-1.568,1.483C483.894,349,480.685,343.277,474.61,340.378Z" transform="translate(-456.583 -339.854)"/></g></g><g transform="translate(789 1593.933)"><g class="bj" transform="matrix(1, 0, 0, 1, -789, -132.93)"><circle class="i" cx="29.605" cy="29.605" r="29.605" transform="translate(789 132.93)"/></g><circle class="j" cx="29.34" cy="29.34" r="29.34" transform="translate(0.264 0.264)"/><g transform="translate(3.176 24.102)"><path class="w" d="M582.733,348.8c-.079.452-.162.906-.237,1.359-.016.1-.074.085-.136.085h-3.343c-.177,0-.173,0-.2.177-.136.776-.274,1.553-.41,2.326q-.195,1.1-.387,2.2t-.388,2.2q-.141.792-.28,1.586c-.01.058-.024.085-.091.085h-1.882c-.02,0-.04-.006-.061-.01l1.509-8.575h-3.6c.023-.134.04-.254.062-.372.058-.336.118-.674.176-1.01a.22.22,0,0,0,0-.062Z" transform="translate(-573.223 -348.796)"/><path class="w" d="M584.663,355.82c-.035.2-.066.4-.1.589-.048.268-.1.535-.14.8a.219.219,0,0,1-.13.182,6.094,6.094,0,0,1-1.867.571,8.283,8.283,0,0,1-1.691.051,3.514,3.514,0,0,1-2.164-.8,2.542,2.542,0,0,1-.89-1.684,4.1,4.1,0,0,1,2.309-4.13,4.934,4.934,0,0,1,1.791-.483,4.518,4.518,0,0,1,1.746.149,2.28,2.28,0,0,1,1.652,1.879,3.886,3.886,0,0,1-.149,1.871.156.156,0,0,1-.177.127h0q-2.567-.007-5.131,0c-.154,0-.153,0-.16.157a1.393,1.393,0,0,0,1.019,1.465,3.448,3.448,0,0,0,1.467.178,5.258,5.258,0,0,0,2.561-.9A.354.354,0,0,1,584.663,355.82Zm-4.887-2.076c.058,0,.085.01.113.01h3.374c.076,0,.111-.027.114-.1a3.852,3.852,0,0,0,.006-.447,1.131,1.131,0,0,0-.7-1.023,1.929,1.929,0,0,0-1.144-.091,2.221,2.221,0,0,0-1.586,1.25c-.068.126-.114.257-.176.4Z" transform="translate(-571.259 -347.869)"/><path class="w" d="M601.656,355.806c-.048.28-.091.53-.136.786-.037.219-.075.44-.121.658a.206.206,0,0,1-.089.124,5.784,5.784,0,0,1-1.612.548,7.927,7.927,0,0,1-1.99.092,3.461,3.461,0,0,1-2.213-.863,2.419,2.419,0,0,1-.808-1.548,3.989,3.989,0,0,1,1.947-4.007,4.426,4.426,0,0,1,1.939-.659,4.8,4.8,0,0,1,1.814.088,2.3,2.3,0,0,1,1.785,1.9,3.786,3.786,0,0,1-.163,1.922c-.027.085-.081.088-.151.088h-5.109c-.173,0-.182,0-.191.166a1.324,1.324,0,0,0,.586,1.238,2.287,2.287,0,0,0,1.037.369,4.971,4.971,0,0,0,3.377-.846Zm-4.873-2.052h3.453c.079,0,.13-.012.127-.105a4.712,4.712,0,0,0-.007-.553,1.1,1.1,0,0,0-.724-.926,1.981,1.981,0,0,0-1.206-.053,2.3,2.3,0,0,0-1.626,1.544A.679.679,0,0,0,596.783,353.754Z" transform="translate(-563.733 -347.869)"/><path class="w" d="M584.337,350.9l.2.113c.5.3,1.007.595,1.509.892.066.04.12.064.185-.009a3.079,3.079,0,0,1,1.4-.83,4.056,4.056,0,0,1,1.494-.167,2.469,2.469,0,0,1,1.43.511,1.935,1.935,0,0,1,.685,1.227,4.12,4.12,0,0,1-.074,1.456c-.124.7-.245,1.394-.368,2.091-.1.547-.195,1.091-.289,1.638-.01.058-.03.075-.087.075h-1.893a.285.285,0,0,1-.05-.009c.045-.257.088-.509.133-.762l.39-2.2c.061-.349.128-.7.179-1.052a1.751,1.751,0,0,0-.084-.919,1.015,1.015,0,0,0-.815-.633,2.059,2.059,0,0,0-2.144.977,2.266,2.266,0,0,0-.24.8q-.195,1.108-.388,2.221c-.088.5-.177,1-.264,1.5-.01.055-.022.089-.088.089h-1.9a.316.316,0,0,1-.035-.012C583.576,355.563,584.086,353.262,584.337,350.9Z" transform="translate(-568.796 -347.868)"/><path class="w" d="M600.2,357.9c.364-2.338.87-4.636,1.123-6.991.045.022.076.039.107.056.528.317,1.056.625,1.586.942a.143.143,0,0,0,.2-.019l.007-.01a3.126,3.126,0,0,1,1.586-.86,3.652,3.652,0,0,1,2.03.032,1.915,1.915,0,0,1,1.385,1.691,4.194,4.194,0,0,1-.074,1.3q-.2,1.1-.39,2.2-.138.79-.276,1.577c-.009.052-.026.081-.087.081h-1.9a.167.167,0,0,1-.038-.012c.013-.088.027-.178.043-.267l.619-3.525a2.345,2.345,0,0,0,.014-.935,1.04,1.04,0,0,0-.882-.846,2.062,2.062,0,0,0-2.137.973,2.133,2.133,0,0,0-.235.765c-.128.739-.26,1.476-.39,2.215-.088.5-.177,1-.26,1.5-.016.1-.042.139-.156.139-.589-.009-1.177,0-1.766,0Z" transform="translate(-561.272 -347.869)"/><path class="w" d="M596.458,353.1c-.126-.115-.238-.235-.367-.336a2.477,2.477,0,0,0-1.319-.518,3.2,3.2,0,0,0-2.375.658,2.432,2.432,0,0,0-.964,1.739,1.691,1.691,0,0,0,1.325,1.913,3.252,3.252,0,0,0,3.19-.7l.026-.02H596c-.032.177-.062.355-.094.53-.068.374-.139.747-.2,1.121a.152.152,0,0,1-.118.137,8.059,8.059,0,0,1-1.7.354,9.165,9.165,0,0,1-1.364.036,3.684,3.684,0,0,1-2.25-.867,2.564,2.564,0,0,1-.908-1.7,3.664,3.664,0,0,1,1.724-3.6A5.5,5.5,0,0,1,593.3,351a7.448,7.448,0,0,1,1.6-.105,5.6,5.6,0,0,1,1.789.371c.046.017.076.033.066.1q-.147.855-.292,1.713A.039.039,0,0,1,596.458,353.1Z" transform="translate(-566.088 -347.871)"/><path class="w" d="M607,358.439c.328-1.86.651-3.707.978-5.567-.049,0-.088-.013-.127-.014H606.9a.183.183,0,0,1-.131-.059c-.274-.384-.543-.772-.814-1.163a.457.457,0,0,1-.02-.048h2.144c.105,0,.141-.038.159-.136.1-.573.2-1.146.3-1.72a.489.489,0,0,1,.026-.063l3.959,3.18c-.062,0-.1.007-.134.007h-2.25c-.092,0-.134.017-.151.12-.141.828-.289,1.657-.434,2.483l-.476,2.688c-.014.075-.022.151-.042.225a.106.106,0,0,1-.071.065C608.309,358.441,607.665,358.439,607,358.439Z" transform="translate(-558.734 -348.409)"/></g></g><g transform="translate(871 1593.933)"><g class="bi" transform="matrix(1, 0, 0, 1, -871, -132.93)"><circle class="i" cx="29.605" cy="29.605" r="29.605" transform="translate(871 132.93)"/></g><circle class="j" cx="29.34" cy="29.34" r="29.34" transform="translate(0.264 0.264)"/><g transform="translate(12.692 14.587)"><g transform="translate(14.611)"><path class="x" d="M650.05,353.124l6.376-10.922h3.444l4.251,7.7-12.679,22.282h-2.856l11-19.056Z" transform="translate(-648.587 -342.202)"/><path class="y" d="M663.543,348.052,651.074,369.66h1.98l11.482-19.894Z" transform="translate(-647.485 -339.611)"/><path class="z" d="M664.018,349.933l-10.659,18.9h1.613l10.034-17.253Z" transform="translate(-646.473 -338.778)"/><path class="aa" d="M655.588,367.944h.962l8.554-15.216-.423-.8Z" transform="translate(-645.486 -337.893)"/></g><path class="x" d="M655.364,361.31l-6.376,10.92h-3.444l-4.252-7.7,12.681-22.282h2.854l-11,19.057Z" transform="translate(-637.207 -342.179)"/><path class="ab" d="M641.233,363.812,653.7,342.2h-1.98l-11.482,19.9Z" transform="translate(-637.672 -342.202)"/><path class="z" d="M640.2,361.1l10.659-18.9h-1.612l-10.036,17.253Z" transform="translate(-638.128 -342.202)"/><path class="aa" d="M647.977,342.2h-.963l-8.554,15.216.424.8Z" transform="translate(-638.461 -342.202)"/></g></g><g transform="translate(1035 1593.933)"><g class="bh" transform="matrix(1, 0, 0, 1, -1035, -132.93)"><circle class="i" cx="29.605" cy="29.605" r="29.605" transform="translate(1035 132.93)"/></g><circle class="j" cx="29.34" cy="29.34" r="29.34" transform="translate(0.264 0.264)"/><g transform="translate(6.957 23.463)"><path class="s" d="M770.876,348.353c-.061,1.241-.04,2.476-.048,3.721l.179-.091a3.83,3.83,0,0,1,1.567-.377,2.932,2.932,0,0,1,1.566.369,3.187,3.187,0,0,1,1.254,1.32,4.041,4.041,0,0,1,.452,1.525,5.242,5.242,0,0,1-.287,2.381,3.783,3.783,0,0,1-2.658,2.4,5.269,5.269,0,0,1-1.325.188,10.946,10.946,0,0,1-2.061-.162c-.332-.056-.659-.12-.988-.188l-.055-.013v-.312c0-.309.014-.616.017-.925q.015-1.18.023-2.359.009-1.431.009-2.858c0-.4,0-.794-.013-1.19-.01-.468-.019-.935-.048-1.4a1.478,1.478,0,0,0-.215-.707.77.77,0,0,0-.566-.33c-.105-.019-.209-.03-.325-.046v-.211c0-.108,0-.108.107-.127l1.844-.329,1.548-.276Zm2.525,7.169a5.251,5.251,0,0,0-.224-1.619,2.469,2.469,0,0,0-.606-1.058,1.335,1.335,0,0,0-.843-.393,2.168,2.168,0,0,0-.872.143.06.06,0,0,0-.027.048c-.006.153-.01.307-.012.462,0,.375-.01.75-.01,1.127,0,.7,0,1.392.009,2.088.006.655.017,1.31.03,1.967,0,.274.02.55.03.825,0,.042.016.064.059.068.118.012.245.03.368.033a1.6,1.6,0,0,0,.476-.029,1.449,1.449,0,0,0,.746-.511,3.269,3.269,0,0,0,.57-1.1A6.712,6.712,0,0,0,773.4,355.522Z" transform="translate(-744.869 -348.353)"/><path class="s" d="M751.775,348.5h9.258v.442c.007.547.016,1.1.024,1.642q.009.476.02.96a.06.06,0,0,1-.046.072h-.006c-.157.043-.315.092-.476.141-.029-.081-.056-.162-.085-.238a4.969,4.969,0,0,0-.654-1.277,2.2,2.2,0,0,0-1.365-.893,2.779,2.779,0,0,0-.476-.053c-.625-.006-1.25,0-1.876,0h-.049c-.047.2-.143,4.254-.108,4.439h.418c.3-.012.6-.026.9-.038a1.084,1.084,0,0,0,.935-.584,2.715,2.715,0,0,0,.3-.853l.016-.078h.469V355.9h-.463c-.039-.152-.071-.3-.12-.453a1.778,1.778,0,0,0-.372-.714,1.057,1.057,0,0,0-.778-.358c-.418-.014-.834-.035-1.254-.052h-.056v.074c.014.667.023,1.333.045,2,.012.384.037.765.071,1.147a2.692,2.692,0,0,0,.2.863.916.916,0,0,0,.791.583c.225.026.449.072.677.108v.419h-5.936v-.394c0-.01.027-.027.043-.03.195-.038.39-.079.586-.108a.922.922,0,0,0,.752-.618,2.534,2.534,0,0,0,.172-.734c.033-.427.061-.854.071-1.281.023-.991.046-1.981.045-2.977,0-.788-.038-1.577-.064-2.364a4.883,4.883,0,0,0-.1-.918,2.925,2.925,0,0,0-.137-.453.947.947,0,0,0-.775-.609c-.177-.03-.358-.043-.535-.059-.051,0-.065-.02-.064-.069C751.776,348.773,751.775,348.636,751.775,348.5Z" transform="translate(-751.772 -348.29)"/><path class="s" d="M757.421,354.7a4.443,4.443,0,0,1,.44-2.029,3.657,3.657,0,0,1,2.185-1.913,4.66,4.66,0,0,1,1.667-.222,4.316,4.316,0,0,1,1.489.3,3.373,3.373,0,0,1,1.944,2.013,4.888,4.888,0,0,1,.307,1.54,4.61,4.61,0,0,1-.436,2.3,3.65,3.65,0,0,1-2.12,1.895,4.454,4.454,0,0,1-1.394.245,4.68,4.68,0,0,1-1.574-.206,3.368,3.368,0,0,1-2.159-2.012,4.84,4.84,0,0,1-.343-1.607v-.052C757.421,354.867,757.421,354.785,757.421,354.7Zm5.565.075H763c-.022-.378-.039-.758-.071-1.136a5.4,5.4,0,0,0-.267-1.309,2.391,2.391,0,0,0-.52-.925,1.051,1.051,0,0,0-1.111-.3,1.092,1.092,0,0,0-.625.519,3.246,3.246,0,0,0-.384,1.137,9.848,9.848,0,0,0-.134,1.773c0,.356.017.72.042,1.079a5.8,5.8,0,0,0,.257,1.359,2.617,2.617,0,0,0,.486.936,1.035,1.035,0,0,0,1.271.283,1.221,1.221,0,0,0,.564-.57,3.685,3.685,0,0,0,.371-1.255,11.767,11.767,0,0,0,.105-1.592Z" transform="translate(-749.27 -347.388)"/><path class="s" d="M781.044,354.316h-4.893v.374a4,4,0,0,0,.261,1.326,2.5,2.5,0,0,0,1.192,1.364,2.623,2.623,0,0,0,.952.276,3.478,3.478,0,0,0,1.172-.065,2.806,2.806,0,0,0,.936-.453l.058-.039.212.263a2.7,2.7,0,0,1-.4.444,3.893,3.893,0,0,1-1.8.921,4.275,4.275,0,0,1-2.775-.277,3.7,3.7,0,0,1-2.078-2.517,4.405,4.405,0,0,1-.147-1.1,4.55,4.55,0,0,1,.573-2.375,3.644,3.644,0,0,1,2.56-1.838,4.209,4.209,0,0,1,1.74,0,2.807,2.807,0,0,1,2.007,1.6,4.211,4.211,0,0,1,.387,1.429C781.02,353.866,781.03,354.086,781.044,354.316Zm-4.9-.579,2.464-.052v-.046a7.354,7.354,0,0,0-.087-1.182,3.045,3.045,0,0,0-.238-.847.953.953,0,0,0-.4-.466.734.734,0,0,0-.815.088,1.655,1.655,0,0,0-.508.671,4.986,4.986,0,0,0-.418,1.833Z" transform="translate(-742.044 -347.388)"/><path class="s" d="M784.927,353.005l-.358.1-.033-.091a4.482,4.482,0,0,0-.537-1.11,1.752,1.752,0,0,0-.919-.714,1.6,1.6,0,0,0-.834-.048,1.071,1.071,0,0,0-.807.912,1.009,1.009,0,0,0,.281.924,2.569,2.569,0,0,0,.364.284,7.243,7.243,0,0,0,1.112.538c.31.131.62.261.925.408a2.491,2.491,0,0,1,.753.558,1.824,1.824,0,0,1,.476,1.087,2.629,2.629,0,0,1-.177,1.3,2.442,2.442,0,0,1-1.146,1.225,3.8,3.8,0,0,1-1.358.41,7.132,7.132,0,0,1-1.753-.033,7.445,7.445,0,0,1-1.505-.326c-.065-.02-.15-.032-.183-.076s-.015-.128-.016-.2c-.014-.535-.026-1.071-.039-1.606,0-.154,0-.309-.007-.463,0-.032.007-.048.04-.055.108-.029.214-.061.328-.094l.038.1a4.908,4.908,0,0,0,.629,1.2,1.99,1.99,0,0,0,1.006.756,1.818,1.818,0,0,0,1.165.007,1.183,1.183,0,0,0,.737-1.465.964.964,0,0,0-.313-.456,2.717,2.717,0,0,0-.776-.45c-.333-.136-.671-.254-1-.385a3.519,3.519,0,0,1-.967-.547,1.962,1.962,0,0,1-.714-1.4,2.271,2.271,0,0,1,.369-1.506,2.661,2.661,0,0,1,1.185-.96,3.756,3.756,0,0,1,1.4-.3,6.961,6.961,0,0,1,2.035.224c.179.049.351.12.527.173a.06.06,0,0,1,.046.066q.022.926.045,1.85A.5.5,0,0,0,784.927,353.005Z" transform="translate(-739.637 -347.388)"/><path class="s" d="M763.027,351.543v-.319l3.519-.683-.051,1.8h.009c.042-.082.082-.166.127-.248a3.192,3.192,0,0,1,1-1.172,2.168,2.168,0,0,1,1.365-.407,1.736,1.736,0,0,1,.808.238l-.838,2.149c-.108-.058-.206-.118-.312-.164a2.275,2.275,0,0,0-1.688-.128.961.961,0,0,0-.442.263.128.128,0,0,0-.03.076c-.013.714-.036,1.423-.03,2.134,0,.632.038,1.263.069,1.895a3.492,3.492,0,0,0,.091.633.661.661,0,0,0,.654.544l.56.046.071.009v.416h-4.881v-.271c0-.152,0-.15.147-.169.111-.014.222-.027.332-.051a.711.711,0,0,0,.544-.538,2.359,2.359,0,0,0,.088-.633c.015-.511.032-1.022.042-1.531.007-.449.016-.9.006-1.348-.013-.532-.039-1.062-.069-1.594a1.774,1.774,0,0,0-.089-.421.656.656,0,0,0-.583-.466Z" transform="translate(-746.786 -347.396)"/></g></g><g transform="translate(90.992 1486.932)"><text class="ac" transform="translate(0 13)"><tspan x="0" y="0">北京偶数科技</tspan></text><text class="ac" transform="translate(0 32.031)"><tspan x="0" y="0">有限公司成立</tspan></text></g><g transform="translate(253.481 1486.932)"><text class="ad" transform="translate(0 13)"><tspan x="0" y="0">获得红杉中国</tspan></text><text class="ac" transform="translate(0 32.031)"><tspan x="0" y="0">领投</tspan></text><text class="ae" transform="translate(25.377 31.474)"><tspan x="0" y="0" xml:space="preserve"> A </tspan></text><g transform="translate(39.705 19.031)"><text class="ad" transform="translate(0 13)"><tspan x="0" y="0">轮投资</tspan></text></g></g><text class="ad" transform="translate(418.331 1499.932)"><tspan x="0" y="0">入选</tspan></text><text class="af" transform="translate(448.468 1499.932)"><tspan x="0" y="0">“</tspan><tspan class="c" y="0">微软加速器</tspan></text><text class="ad" transform="translate(418.331 1518.963)"><tspan x="0" y="0">北京</tspan></text><text class="ag" transform="translate(443.705 1518.406)"><tspan x="0" y="0" xml:space="preserve"> 11 </tspan></text><text class="ad" transform="translate(464.298 1518.963)"><tspan x="0" y="0">期企业</tspan><tspan class="ah" y="0">”</tspan></text><g transform="translate(582.903 1486.932)"><text class="ac" transform="translate(0 13)"><tspan x="0" y="0">入选首批</tspan></text><g transform="translate(50.754 1.443)"><text class="ag" transform="translate(0 11)"><tspan x="0" y="0" xml:space="preserve"> VMware</tspan></text></g><text class="ac" transform="translate(0 32.031)"><tspan x="0" y="0">创新网络</tspan></text><text class="ai" transform="translate(50.754 31.474)"><tspan x="0" y="0">·</tspan></text><g transform="translate(54.097 19.031)"><text class="ad" transform="translate(0 13)"><tspan x="0" y="0">威睿加速计划</tspan></text></g></g><g transform="translate(829.042 1727.035)"><text class="b" transform="translate(0 15)"><tspan x="0" y="0">2021</tspan><tspan class="c" y="0">年</tspan><tspan y="0">3</tspan><tspan class="c" y="0">月</tspan></text></g><text class="ac" transform="translate(829.043 1763.787)"><tspan x="0" y="0">获腾讯近</tspan><tspan class="aj" y="0" xml:space="preserve"> 2</tspan><tspan class="ah" y="0"> </tspan><tspan y="0">亿元</tspan><tspan class="aj" y="0" xml:space="preserve"> B+</tspan><tspan class="ah" y="0"> </tspan><tspan y="0">轮</tspan><tspan class="aj" y="0"> </tspan></text><text class="ad" transform="translate(829.043 1784.995)"><tspan x="0" y="0">投资，引领云原生赛道</tspan></text><g transform="translate(995.396 1727.034)"><text class="b" transform="translate(0 15)"><tspan x="0" y="0">2021</tspan><tspan class="c" y="0">年</tspan><tspan y="0">8</tspan><tspan class="c" y="0">月</tspan></text></g><text class="ac" transform="translate(995.396 1765.967)"><tspan x="0" y="0">通过</tspan><tspan class="aj" y="0" xml:space="preserve"> CMMI 5 </tspan><tspan y="0">级软件</tspan></text><text class="ad" transform="translate(995.396 1784.996)"><tspan x="0" y="0">能力高成熟度认证</tspan></text><path class="d" d="M531.929,345.562V194.221" transform="translate(205.156 1280.537)"/><g transform="translate(731.798 1466.299)"><rect class="e" width="10.573" height="10.573"/><rect class="f" width="4.229" height="4.229" transform="translate(3.172 3.172)"/></g><g transform="translate(747.125 1461)"><text class="b" transform="translate(0 15)"><tspan x="0" y="0">2021</tspan><tspan class="c" y="0">年</tspan><tspan y="0">3</tspan><tspan class="c" y="0">月</tspan></text></g><text class="ac" transform="translate(747.125 1499.932)"><tspan x="0" y="0">入选中央国家机关</tspan><tspan class="ah" y="0"></tspan><tspan x="0" y="17">软件采购名单</tspan></text><g transform="translate(1162.048 1727.035)"><text class="b" transform="translate(0 15)"><tspan x="0" y="0">2022</tspan><tspan class="c" y="0">年</tspan><tspan y="0">8</tspan><tspan class="c" y="0">月</tspan></text></g><text class="ad" transform="translate(1162.048 1765.967)"><tspan x="0" y="0">被评为专精特新</tspan><tspan class="ah" y="0"></tspan><tspan class="ah"><tspan x="0" y="19">“</tspan><tspan class="c" y="19">小巨人</tspan><tspan y="19">”</tspan><tspan class="c" y="19">企业</tspan></tspan></text><g transform="translate(175.402 1727.035)"><text class="b" transform="translate(0 15)"><tspan x="0" y="0">2017</tspan><tspan class="c" y="0">年</tspan><tspan y="0">4</tspan><tspan class="c" y="0">月</tspan></text><g transform="translate(0 25.934)"><text class="ac" transform="translate(0 13)"><tspan x="0" y="0">获得红点中国</tspan><tspan class="ah" y="0"></tspan><tspan x="0" y="17">天使轮投资</tspan></text></g></g><g transform="translate(339.017 1727.035)"><text class="b" transform="translate(0 15)"><tspan x="0" y="0">2017</tspan><tspan class="c" y="0">年</tspan><tspan y="0">12</tspan><tspan class="c" y="0">月</tspan></text></g><text class="ad" transform="translate(339.017 1765.969)"><tspan x="0" y="0">入选《快公司》</tspan></text><text class="ad" transform="translate(339.017 1784.996)"><tspan x="0" y="0">中国最佳创新公司</tspan><tspan class="ah" y="0" xml:space="preserve"> 50 </tspan><tspan y="0">强</tspan></text><g transform="translate(503.883 1727.035)"><text class="b" transform="translate(0 15)"><tspan x="0" y="0">2019</tspan><tspan class="c" y="0">年</tspan><tspan y="0">11</tspan><tspan class="c" y="0">月</tspan></text></g><text class="ac" transform="translate(503.883 1765.969)"><tspan x="0" y="0">获得金山云</tspan><tspan class="aj" y="0" xml:space="preserve"> B</tspan><tspan class="ah" y="0"> </tspan><tspan y="0">轮投资</tspan></text><g transform="translate(668.108 1727.035)"><text class="b" transform="translate(0 15)"><tspan x="0" y="0">2020</tspan><tspan class="c" y="0">年</tspan><tspan y="0">8</tspan><tspan class="c" y="0">月</tspan></text><g transform="translate(0 25.934)"><text class="ac" transform="translate(0 13)"><tspan x="0" y="0">联合建设银行成立高性能</tspan></text><text class="ac" transform="translate(0 32.027)"><tspan x="0" y="0">大数据处理技术实验室</tspan></text></g></g><g transform="translate(915 1461)"><text class="b" transform="translate(0 15)"><tspan x="0" y="0">2021</tspan><tspan class="c" y="0">年</tspan><tspan y="0">6</tspan><tspan class="c" y="0">月</tspan></text><g transform="translate(0 25.934)"><text class="ac" transform="translate(0 13)"><tspan x="0" y="0">加入腾讯云原生加速器</tspan></text></g></g><g transform="translate(1078.509 1461)"><text class="b" transform="translate(0 15)"><tspan x="0" y="0">2021</tspan><tspan class="c" y="0">年</tspan><tspan y="0">12</tspan><tspan class="c" y="0">月</tspan></text></g><text class="ad" transform="translate(1078.509 1499.934)"><tspan x="0" y="0">入选福布斯中国</tspan></text><g transform="translate(1078.509 1504.549)"><text class="ad" transform="translate(0 13)"><tspan x="0" y="0">企业科技</tspan></text><text class="ag" transform="translate(50.751 12.443)"><tspan x="0" y="0" xml:space="preserve"> 50 </tspan></text><text class="ad" transform="translate(71.341 13)"><tspan x="0" y="0">强</tspan></text></g><path class="d" d="M826.208,363.967V477.2" transform="translate(323.237 1262.132)"/><g transform="translate(1144.159 1730.532)"><rect class="e" width="10.573" height="10.573"/><rect class="f" width="4.229" height="4.229" transform="translate(3.172 3.172)"/></g><g transform="translate(1242.536 1461)"><text class="b" transform="translate(0 15)"><tspan x="0" y="0">2022</tspan><tspan class="c" y="0">年</tspan><tspan y="0">8</tspan><tspan class="c" y="0">月</tspan></text><g class="ak" transform="translate(0 25.934)"><text class="ad" transform="translate(0 13)"><tspan x="0" y="0">与中国移动</tspan><tspan class="ah" y="0"></tspan><tspan x="0" y="17">成立联合实验室</tspan></text></g></g><g transform="translate(-12)"><g transform="translate(62 1593.933)"><g class="bg" transform="matrix(1, 0, 0, 1, -50, -132.93)"><circle class="i" cx="29.605" cy="29.605" r="29.605" transform="translate(50 132.93)"/></g><circle class="j" cx="29.34" cy="29.34" r="29.34" transform="translate(0.264 0.264)"/></g><g transform="translate(77.169 1606.338)"><path class="e" d="M81.5,350.781H74.952a9.448,9.448,0,1,1-.1-.1v-6.541a14.681,14.681,0,0,0-6.61-1.563,14.807,14.807,0,1,0,13.256,8.2Z" transform="translate(-53.426 -339.475)"/><rect class="g" width="6.625" height="6.625" transform="translate(26.446)"/></g></g><g transform="translate(707 1593.933)"><g class="bf" transform="matrix(1, 0, 0, 1, -707, -132.93)"><circle class="i" cx="29.605" cy="29.605" r="29.605" transform="translate(707 132.93)"/></g><circle class="j" cx="29.34" cy="29.34" r="29.34" transform="translate(0.264 0.264)"/><g transform="translate(10.487 10.789)"><path class="al" d="M552.982,350.694v5.847s-11.132,2.228-16.144,15.732h-6.125S536.685,354.731,552.982,350.694Z" transform="translate(-514.745 -334.643)"/><path class="am" d="M552.982,361.149V355.3s-11.132-2.228-16.144-15.732h-6.125S536.685,357.112,552.982,361.149Z" transform="translate(-514.745 -339.57)"/><rect class="an" width="19.727" height="5.529" transform="translate(18.509 16.051)"/><path class="an" d="M519.647,361.149V355.3s11.131-2.228,16.142-15.732h6.127S535.942,357.112,519.647,361.149Z" transform="translate(-519.647 -339.57)"/><path class="ao" d="M519.647,350.694v5.847s11.131,2.228,16.142,15.732h6.127S535.942,354.731,519.647,350.694Z" transform="translate(-519.647 -334.643)"/></g></g><g transform="translate(-29)"><g transform="translate(982 1593.933)"><g class="be" transform="matrix(1, 0, 0, 1, -953, -132.93)"><circle class="i" cx="29.605" cy="29.605" r="29.605" transform="translate(953 132.93)"/></g><circle class="j" cx="29.34" cy="29.34" r="29.34" transform="translate(0.264 0.264)"/></g><g transform="translate(993 1605.088)"><path class="ap" d="M725.126,344.192c1.234,3.63-.6,10.825-5.656,16.854-5.844,6.938-14.248,11.826-18.438,9.5a3.781,3.781,0,0,0,.489.7,20.691,20.691,0,0,0,1.769,1.141c3.887,1.186,11.593-2.561,17.391-9.453,5.029-6.029,7.147-12.688,6.378-16.692Z" transform="translate(-693.881 -337.932)"/><path class="ap" d="M704.418,341.425c-2.49,2.375-5.633,9.988-2.84,18.578,2.723,8.4,10.219,14.969,13.782,15.831a2.394,2.394,0,0,0,1.071,0h0a2.47,2.47,0,0,0,1.443-.838h0c-3.795-.745-11.569-7.728-14.271-16.063-2.7-8.358.558-15.3,3.236-18.112h-.023Z" transform="translate(-694.124 -339.426)"/><path class="ap" d="M730.172,363.706a1.759,1.759,0,0,0-.046-1.955c-1.654-2.678-6.495-7.1-12.92-11.082-6.775-4.213-13.34-6.681-16.3-6.752l-1.466.861-.094.466a.929.929,0,0,1-.094.232c-.3.56-.768,1.351-1.048,1.817a2.781,2.781,0,0,1,1.654-.815c3.446-.163,9.94,1.815,16.343,5.8s10.942,8.847,12.316,12.013a1.68,1.68,0,0,1-.466,1.514l1.537-1.257.023-.209Z" transform="translate(-695.132 -338.054)"/><path class="i" d="M698.3,346.257a1.4,1.4,0,0,0-.234.326C698,346.722,698.117,346.559,698.3,346.257Z" transform="translate(-695.202 -337.018)"/><path class="aq" d="M722.37,343.808c8.358,5.029,11.22,15.575,6.4,23.56l.652.4a18.4,18.4,0,0,0-31.521-19l.652.4C703.372,341.177,714.036,338.779,722.37,343.808Z" transform="translate(-695.268 -339.854)"/><path class="ar" d="M705,371.29A18.39,18.39,0,0,0,730.255,365l-.652-.4c-4.795,7.984-15.225,10.1-23.559,5.1-8.358-5.006-11.477-15.3-6.681-23.281l-.652-.4A18.411,18.411,0,0,0,705,371.29Z" transform="translate(-696.076 -337.118)"/><path class="ar" d="M725.273,343.491c-.188-.163-.4-.326-.583-.466-.442-.349-.885-.652-1.351-.955-4.353-2.118-12.874.955-18.9,8.1-6.007,7.147-7.427,15.9-4.586,19.835.372.4.768.791,1.163,1.164l.558.488c.349.28.7.56,1.048.815a3.706,3.706,0,0,1-.488-.7c-1.909-3.586,1.117-11.477,6.961-18.415s12.5-10.616,16.366-9.334a3.8,3.8,0,0,1,.768.349A8.679,8.679,0,0,0,725.273,343.491Z" transform="translate(-695.028 -339.164)"/><path class="as" d="M722.258,354.736c-2.864-8.824-10.523-14.643-14.457-14.691-.512.094-1.025.186-1.514.326a8.945,8.945,0,0,0-1.048.3c-.372.117-.721.255-1.094.4a2.826,2.826,0,0,1,1.071.094c3.166.931,9.777,6.681,12.479,15.015s.6,16.529-1.421,19.136a2.759,2.759,0,0,1-.791.7c.372-.094.745-.209,1.094-.326s.7-.232,1.025-.372a15.216,15.216,0,0,0,1.42-.629C722.164,372.335,725.1,363.558,722.258,354.736Z" transform="translate(-692.502 -339.769)"/><path class="at" d="M697.874,347.07c-.094.186-.211.349-.3.535-.931,2.794,3.189,10.71,11.454,15.831s17.646,5.61,19.741,3.538l.349-.488c.14-.186.257-.4.4-.606a19.059,19.059,0,0,0,1.1-2.024c-3.749,1.489-11.874-1.584-18.3-5.564-6.4-4-13.131-10.756-12.735-13.712a13.7,13.7,0,0,0-1.326,1.886A5.089,5.089,0,0,0,697.874,347.07Z" transform="translate(-695.472 -337.761)"/></g></g><g transform="translate(-32)"><g transform="translate(1150 1593.933)"><g class="bd" transform="matrix(1, 0, 0, 1, -1118, -132.93)"><circle class="i" cx="29.605" cy="29.605" r="29.605" transform="translate(1118 132.93)"/></g><circle class="j" cx="29.34" cy="29.34" r="29.34" transform="translate(0.264 0.264)"/><g transform="translate(6.223 16.899)"><path class="au" d="M842.748,360.226v-3.978l1.258.271v3.711Zm-2.079,0v-7.687h3.55v.769H841.93v2h2.29v.775h-2.29v4.144Zm-7.036-.053H833.2l-.081-.776h.515v-1.965h-2.555v-.776h2.551v-.561h1.263v.561h.57v.776h-.57v2.742Zm-4.606,0v-2.4H812.669l.6-.775h15.761v-2.255h-.97v-2.251h.756v1.48h.211v-1.638h1.26v1.633h.548v.775h-.548V357h.548v.775h-.548v2.4Zm8.684-.013v-2.467h-1.394v-.776h1.394v-.733l1.263.27v.463h1.433v.776h-1.433v2.467Zm1.844-.1-.134-1.987h.809l.136,1.987Zm-3.172,0,.133-1.987h.809l-.13,1.991ZM831.641,360l-.332-2.166h1.26l.332,2.172Zm-19.592-2.225.62-.775.384.009-.6.766Zm-.594,0,.616-.775.385.009-.6.766Zm-.6,0,.618-.775.384.009-.6.766Zm-.6,0,.618-.775.384.009-.6.766Zm26.058-1.835v-.778h.4l-.186-1.121H837.8l.188,1.121h.724l.186-1.121h1.27l-.195,1.121h.439v.778Zm-5.236-.325v-.778h4.384v.778Zm1.555-1v-.794h-1.417v-.773h1.417v-.626H833.9v.626h1.413v.773H833.9v.885Zm3.68-1v-.775h1.418v-.423H839v.423h1.411v.775Z" transform="translate(-809.75 -340.025)"/><g transform="translate(0 7.763)"><path class="av" d="M818.632,352.656h3.261v2.729h-.837l.1.776h2v-4.278h-4.522Z" transform="translate(-806.043 -347.988)"/><rect class="av" width="1.268" height="0.776" transform="translate(14.209 5.06)"/><rect class="av" width="1.268" height="0.776" transform="translate(14.209 6.243)"/><path class="av" d="M823.348,350.281v-.775h-1.706v-.318h-1.261v.318h-1.835v.775h1.835v.436h-1.716v.775h1.716v.436h-1.835v.776h4.8v-.776h-1.7v-.436h1.576v-.775h-1.576v-.436Z" transform="translate(-806.079 -349.182)"/><path class="av" d="M818.427,349.188h-1.26v2.974h-1.03v.776h1.03v4.5h1.26v-4.5h.98v-.776h-.98Z" transform="translate(-807.146 -349.182)"/><rect class="av" width="0.43" height="2.413" transform="translate(11.686 0.157)"/><rect class="av" width="0.43" height="2.413" transform="translate(9.181 0.157)"/><rect class="av" width="0.43" height="3.961" transform="translate(11.686 4.141)"/><rect class="av" width="0.43" height="3.961" transform="translate(9.181 4.141)"/><path class="av" d="M818.63,355.887h1.261v-3.156l-1.261-.231Z" transform="translate(-806.042 -347.715)"/><path class="av" d="M813.108,350.735h4.446v-.775h-4.31l.137-.776h-1.429l-.121.776h-1.607v.775h1.486l-.191,1.216h-1.613v.775H811.4l-.293,1.887,1.307.035.007-.035h3.264l-.349,1.921H811.3v.776h5.35l.063.017v-.017h.01v-.079l.424-3.392h-4.589l.2-1.111h5.12v-.776H812.89Z" transform="translate(-809.906 -349.184)"/></g><path class="aw" d="M837.243,343.8s6.815,1.349,5,10.685a3.063,3.063,0,0,1,.815,2.591S847.647,345.543,837.243,343.8Z" transform="translate(-797.797 -343.804)"/><g transform="translate(31.954 21.051)"><path class="au" d="M840.394,358.393h-1.385a13.115,13.115,0,0,1-6.958,5.219S836.205,363.754,840.394,358.393Z" transform="translate(-832.051 -358.393)"/></g></g></g><g transform="translate(1177.289 1618.433)"><g transform="translate(3.074 0.091)"><path class="av" d="M825.927,353.045H824.9v-.551h.479V349.2h.551Z" transform="translate(-824.897 -349.201)"/></g><g transform="translate(1.777 0.749)"><rect class="av" width="2.904" height="0.551" transform="translate(0 2.833) rotate(-77.307)"/></g><g transform="translate(4.583 0.749)"><rect class="av" width="0.551" height="2.904" transform="matrix(0.976, -0.22, 0.22, 0.976, 0, 0.121)"/></g><g transform="translate(6.331)"><path class="av" d="M830.581,353.087h-3.427v-3.949h3.373v.551H827.7v2.848h2.877Z" transform="translate(-827.154 -349.138)"/></g><g transform="translate(6.551 1.069)"><path class="av" d="M830.515,351.717h-3.208v-.551h2.657v-.737h-2.521v-.551h3.071Z" transform="translate(-827.307 -349.879)"/></g><g transform="translate(10.527 0.039)"><rect class="av" width="4.107" height="0.551" transform="translate(0 3.645) rotate(-62.559)"/></g><g transform="translate(11.946 1.075)"><rect class="av" width="0.551" height="3.164" transform="translate(0 0.32) rotate(-35.478)"/></g><g transform="translate(0 0.058)"><rect class="av" width="0.551" height="0.786"/></g><g transform="translate(0.974 0.058)"><rect class="av" width="0.551" height="0.786"/></g><g transform="translate(14.715 0.058)"><rect class="av" width="0.551" height="0.786"/></g><g transform="translate(15.689 0.058)"><rect class="av" width="0.551" height="0.786"/></g></g><path class="ax" d="M838.958,344.351c-4.063.678-7.763,3.893-9.945,6.345h1.837c2.151-2.192,5.506-4.981,8.711-5.03,4.652-.072,3.372,9.443,2.91,10.544-.242.58-1.42,5.75-5.643,9.122s-8.974,4.721-10.078.994H825.26a5.214,5.214,0,0,0,4.827,3.727c4.082.39,12.425-4.366,15.331-12.176S844.922,343.358,838.958,344.351Z" transform="translate(353.345 1266.866)"/></g><g transform="translate(1368.729 1627.879)"><path class="ay" d="M923.412,356.856a.914.914,0,1,1,.914-.914A.914.914,0,0,1,923.412,356.856Zm0-1.691a.778.778,0,1,0,.777.777A.778.778,0,0,0,923.412,355.165Z" transform="translate(-922.499 -355.029)"/><g transform="translate(0.592 0.415)"><path class="ay" d="M922.937,355.336h.312c.2,0,.35.073.35.281s-.147.3-.35.3h-.182v.422h-.13Zm.295.473c.155,0,.24-.064.24-.192s-.085-.178-.24-.178h-.165v.37Zm.092,0,.305.524h-.145l-.261-.457Z" transform="translate(-922.937 -355.336)"/></g></g><g transform="translate(-47)"><g transform="translate(1247 1594)"><g class="bc" transform="matrix(1, 0, 0, 1, -1200, -133)"><circle class="i" cx="29.605" cy="29.605" r="29.605" transform="translate(1200 133)"/></g><circle class="j" cx="29.34" cy="29.34" r="29.34" transform="translate(0.264 0.264)"/></g><g transform="translate(421.43 1266.484)"><g transform="translate(838.57 340.515)"><path class="az" d="M838.6,358.174a4.093,4.093,0,0,0,.714,2.261,36.63,36.63,0,0,0,7.361,8.9,28.451,28.451,0,0,0,3.377,2.479,7.445,7.445,0,0,0,3.541,1.243,10.325,10.325,0,0,0,7.431-2.358c1.441-1.169,2.82-2.416,4.2-3.653,1.157-1.034,2.286-2.1,3.416-3.163.535-.5.524-.517.028-1.076-.343-.387-.693-.768-1.042-1.15-.475-.52-.579-.518-1.1-.031-1.8,1.68-3.583,3.389-5.424,5.028a36.634,36.634,0,0,1-3.56,2.842,7.2,7.2,0,0,1-4.819,1.192,8.355,8.355,0,0,1-4.359-1.819,38.791,38.791,0,0,1-6.681-6.65C840.617,360.912,839.634,359.538,838.6,358.174Zm32.471-2.614a5.537,5.537,0,0,0-.737-2.3,35.454,35.454,0,0,0-4.118-5.684,31.171,31.171,0,0,0-5.939-5.374,9.263,9.263,0,0,0-9.862-.5,15.882,15.882,0,0,0-3.5,2.614c-2.036,1.831-4.045,3.692-6.077,5.529-.324.294-.393.5-.034.835a16.7,16.7,0,0,1,1.141,1.243c.487.551.584.555,1.127.049,1.757-1.639,3.5-3.3,5.286-4.905a42.455,42.455,0,0,1,3.388-2.771,7.416,7.416,0,0,1,4.814-1.406,8.194,8.194,0,0,1,4.6,1.8,40.169,40.169,0,0,1,7.184,7.237C869.289,353.1,870.163,354.346,871.068,355.561Zm-32.315-.952a1.5,1.5,0,0,0,.194,1.733,52.972,52.972,0,0,0,7.479,8.592,15.227,15.227,0,0,0,3.7,2.713,5.547,5.547,0,0,0,6.506-.78c2.768-2.472,5.428-5.064,8.138-7.6.234-.218.223-.388-.005-.6-.466-.436-.917-.889-1.375-1.336-.664-.65-.922-.634-1.6-.009q-3.874,3.575-7.771,7.124a4.293,4.293,0,0,1-2.96,1.126,5.153,5.153,0,0,1-3.377-1.41,54.3,54.3,0,0,1-6.964-7.091C840.066,356.276,839.434,355.461,838.753,354.609Zm32.085,4.376a1.769,1.769,0,0,0-.31-1.911,54.281,54.281,0,0,0-8-8.981,13.114,13.114,0,0,0-3.269-2.223,5.422,5.422,0,0,0-6.225.8c-2.806,2.5-5.492,5.129-8.233,7.7-.213.2-.225.353,0,.559.482.443.936.916,1.416,1.36.695.641.9.613,1.6-.035q3.84-3.543,7.7-7.061a4.358,4.358,0,0,1,3.042-1.158,5.02,5.02,0,0,1,3.226,1.316,52.946,52.946,0,0,1,6.778,6.824C869.33,357.079,870.057,358.015,870.838,358.985Z" transform="translate(-838.57 -340.515)"/><path class="az" d="M838.592,353.63c1.037,1.364,2.02,2.737,3.085,4.045a38.792,38.792,0,0,0,6.681,6.65,8.355,8.355,0,0,0,4.359,1.819,7.2,7.2,0,0,0,4.819-1.192,36.63,36.63,0,0,0,3.56-2.842c1.841-1.639,3.621-3.347,5.424-5.028.524-.487.628-.489,1.1.031.349.382.7.763,1.042,1.15.5.559.506.574-.028,1.076-1.13,1.064-2.259,2.129-3.416,3.163-1.384,1.237-2.763,2.484-4.2,3.653a10.325,10.325,0,0,1-7.431,2.358,7.446,7.446,0,0,1-3.541-1.243,28.447,28.447,0,0,1-3.377-2.479,36.629,36.629,0,0,1-7.361-8.9A4.093,4.093,0,0,1,838.592,353.63Z" transform="translate(-838.564 -335.971)"/><path class="az" d="M870.555,355.561c-.9-1.215-1.779-2.459-2.725-3.645a40.163,40.163,0,0,0-7.184-7.237,8.193,8.193,0,0,0-4.6-1.8,7.416,7.416,0,0,0-4.814,1.406,42.455,42.455,0,0,0-3.388,2.771c-1.79,1.606-3.529,3.267-5.286,4.905-.543.506-.64.5-1.127-.049a16.673,16.673,0,0,0-1.141-1.243c-.36-.331-.291-.541.034-.835,2.032-1.837,4.041-3.7,6.077-5.529a15.882,15.882,0,0,1,3.5-2.614,9.263,9.263,0,0,1,9.862.5,31.17,31.17,0,0,1,5.939,5.374,35.451,35.451,0,0,1,4.118,5.684A5.535,5.535,0,0,1,870.555,355.561Z" transform="translate(-838.057 -340.515)"/><path class="az" d="M838.753,350.982c.681.852,1.313,1.667,1.969,2.46a54.3,54.3,0,0,0,6.964,7.091,5.153,5.153,0,0,0,3.377,1.41,4.292,4.292,0,0,0,2.96-1.126q3.906-3.539,7.771-7.124c.677-.625.936-.641,1.6.009.458.447.909.9,1.375,1.336.229.214.24.384.005.6-2.711,2.537-5.37,5.129-8.138,7.6a5.547,5.547,0,0,1-6.506.78,15.227,15.227,0,0,1-3.7-2.713,52.973,52.973,0,0,1-7.479-8.592A1.5,1.5,0,0,1,838.753,350.982Z" transform="translate(-838.57 -336.889)"/><path class="az" d="M869.275,357.767c-.781-.969-1.508-1.905-2.269-2.813a52.944,52.944,0,0,0-6.778-6.824A5.02,5.02,0,0,0,857,346.815a4.358,4.358,0,0,0-3.042,1.158q-3.872,3.506-7.7,7.061c-.7.648-.9.676-1.6.035-.481-.444-.934-.917-1.416-1.36-.224-.206-.211-.358,0-.559,2.74-2.57,5.427-5.2,8.233-7.7a5.422,5.422,0,0,1,6.225-.8,13.113,13.113,0,0,1,3.269,2.223,54.277,54.277,0,0,1,8,8.981A1.769,1.769,0,0,1,869.275,357.767Z" transform="translate(-837.007 -339.298)"/></g><path class="ba" d="M839.349,348.753l-.512,1.262s.469,1.254,5.268,6.019c4.637,4.6,4.911,3.921,5.661,3.99a3.033,3.033,0,0,0,2.234-.836c1.142-.988,8.133-7.3,8.133-7.3s1.244-.784,2.165-.2a61.883,61.883,0,0,1,7.45,7.57l.545-1.279a81.526,81.526,0,0,0-8.286-8.8,3.732,3.732,0,0,0-5.3-.069l-7.741,7.025s-1.346.937-2.3.187S841.02,351.294,839.349,348.753Z" transform="translate(0.093 2.607)"/></g></g><path class="d" d="M826.208,363.967V477.2" transform="translate(485.56 1262.132)"/><g transform="translate(1324.371 1727.035)"><text class="b" transform="translate(0 15)"><tspan x="0" y="0">2022</tspan><tspan class="c" y="0">年</tspan><tspan y="0">10</tspan><tspan class="c" y="0">月</tspan></text></g><text class="ad" transform="translate(1324.371 1765.967)"><tspan x="0" y="0">入选</tspan><tspan class="ah" y="0" xml:space="preserve"> Gartner </tspan><tspan class="ah"><tspan x="0" y="19">Cool Vendor</tspan></tspan></text><g transform="translate(1306.481 1730.532)"><rect class="e" width="10.573" height="10.573"/><rect class="f" width="4.229" height="4.229" transform="translate(3.172 3.172)"/></g><g transform="translate(-35)"><g transform="translate(1317 1594)"><g class="bb" transform="matrix(1, 0, 0, 1, -1282, -133)"><circle class="i" cx="29.605" cy="29.605" r="29.605" transform="translate(1282 133)"/></g><circle class="j" cx="29.34" cy="29.34" r="29.34" transform="translate(0.264 0.264)"/></g><g transform="translate(1324.587 1619.409)"><path class="ay" d="M895.557,353.257c-.132,0-.2.034-.205.177-.005.18-.03.358-.043.536-.024.316-.047.631-.073.969h.209c.547,0,1.1.005,1.643,0,.163,0,.2.05.2.205-.008.576-.011,1.153,0,1.73a.262.262,0,0,1-.214.295,5.207,5.207,0,0,1-2.272.255,3.013,3.013,0,0,1-2.628-1.827,3.954,3.954,0,0,1-.265-2.412,3,3,0,0,1,2.12-2.52,4.107,4.107,0,0,1,2.657.082,10.426,10.426,0,0,1,1.089.535l1.243-1.216c-.061-.053-.105-.092-.151-.13a5.636,5.636,0,0,0-3.4-1.165,6.122,6.122,0,0,0-2.187.291,4.706,4.706,0,0,0-2.855,2.385,5.664,5.664,0,0,0-.481,3.676,4.538,4.538,0,0,0,2.4,3.347,6.605,6.605,0,0,0,3.889.646,7.813,7.813,0,0,0,2.773-.857.27.27,0,0,0,.176-.276q-.008-2.252,0-4.506c0-.18-.061-.222-.23-.218Z" transform="translate(-889.835 -348.762)"/><g transform="translate(33.859 3.238)"><path class="ay" d="M916.7,355.331a1.561,1.561,0,0,0,.959,1.273,2.227,2.227,0,0,0,2.435-.48,2.42,2.42,0,0,0,.165-.209l1.191.905a3.636,3.636,0,0,1-1.136.966,3.9,3.9,0,0,1-4.556-.687,3.491,3.491,0,0,1-.866-2.345,3.416,3.416,0,0,1,1.346-2.924,3.3,3.3,0,0,1,1.91-.668,3.963,3.963,0,0,1,1.75.264,2.815,2.815,0,0,1,1.62,1.827,6,6,0,0,1,.209,1.923c0,.107-.042.149-.151.147-.326-.005-.65,0-.976,0q-1.853,0-3.706,0C916.835,355.323,916.777,355.327,916.7,355.331Zm0-1.419a.43.43,0,0,0,.1.026q1.5,0,3,0c.123,0,.142-.065.126-.162a1.461,1.461,0,0,0-.33-.746,1.727,1.727,0,0,0-2.223-.207A1.521,1.521,0,0,0,916.7,353.912Z" transform="translate(-914.89 -351.158)"/></g><g transform="translate(10.275 3.24)"><path class="ay" d="M901.9,353.8a1.085,1.085,0,0,0-1.074-1.257,2.706,2.706,0,0,0-2.051.6c-.032.026-.069.046-.089.059l-1.051-1.014c.195-.132.37-.264.557-.378a4.367,4.367,0,0,1,2.239-.653,4.527,4.527,0,0,1,1.791.245,2.04,2.04,0,0,1,1.4,1.893c.039.67.031,1.343.035,2.016.005.841,0,1.681.007,2.522,0,.189-.057.235-.237.228-.391-.012-.782-.009-1.174,0-.153,0-.2-.051-.195-.2s-.011-.292-.019-.455c-.054.026-.074.03-.085.042a3.176,3.176,0,0,1-3.795.25,1.872,1.872,0,0,1-.71-1.754c.1-1.173.906-1.673,1.935-1.935a9.9,9.9,0,0,1,2.076-.214C901.6,353.8,901.748,353.8,901.9,353.8Zm0,1.281c-.466.027-.931.027-1.386.091a3.346,3.346,0,0,0-.9.278.641.641,0,0,0-.368.684.693.693,0,0,0,.449.62,1.424,1.424,0,0,0,.849.074A1.519,1.519,0,0,0,901.9,355.082Z" transform="translate(-897.438 -351.159)"/></g><g transform="translate(26.786 3.239)"><path class="ay" d="M911.37,352.149a7.932,7.932,0,0,1,.582-.547,2.18,2.18,0,0,1,1.274-.438,2.84,2.84,0,0,1,1.324.2,2.14,2.14,0,0,1,1.223,1.674,3.768,3.768,0,0,1,.072.7c.007,1.376,0,2.75.008,4.126,0,.17-.051.214-.215.209-.446-.011-.892,0-1.337,0-.24,0-.239,0-.239-.231,0-1.105.007-2.211-.005-3.315a4.518,4.518,0,0,0-.1-.945.962.962,0,0,0-.992-.8,1.371,1.371,0,0,0-1.487,1.374c-.015,1.224-.015,2.45-.022,3.676,0,.243,0,.243-.251.243-.458,0-.915,0-1.373,0-.135,0-.174-.042-.174-.176q.006-3.2,0-6.4c0-.143.042-.186.185-.184.434.008.868.009,1.3,0,.155,0,.193.053.192.2C911.333,351.715,911.356,351.923,911.37,352.149Z" transform="translate(-909.656 -351.158)"/></g><g transform="translate(22.332 1.478)"><path class="ay" d="M909.967,357.036c-.015.185-.028.381-.045.577-.022.25-.039.5-.073.751a.211.211,0,0,1-.12.145,4.553,4.553,0,0,1-2.038.034,1.566,1.566,0,0,1-1.282-1.5,7.983,7.983,0,0,1-.046-.862q-.006-3.037,0-6.075c0-.246,0-.246.245-.246.453,0,.9.005,1.355,0,.154,0,.193.05.192.2-.008.511,0,1.022-.007,1.533,0,.153.047.193.195.191.482-.008.965,0,1.446-.005.134,0,.187.035.173.173-.038.4-.073.8-.1,1.2-.01.135-.069.17-.193.169-.428,0-.855,0-1.284,0-.07,0-.142.011-.234.018v.188c0,.907,0,1.814,0,2.722a1.281,1.281,0,0,0,.018.25.691.691,0,0,0,.8.65C909.294,357.128,909.613,357.074,909.967,357.036Z" transform="translate(-906.36 -349.855)"/></g><g transform="translate(41.569 3.39)"><path class="ay" d="M922.38,352.084a1.629,1.629,0,0,1,1.049-.712c.388-.066.788-.068,1.181-.1.1-.007.124.051.118.136-.036.442-.07.884-.115,1.324,0,.036-.089.086-.139.089-.187.012-.373.012-.559.007a1.511,1.511,0,0,0-1.5,1.3,2.679,2.679,0,0,0-.036.465c0,1.076-.005,2.15,0,3.226,0,.157-.039.208-.2.2-.469-.011-.939-.008-1.408,0-.132,0-.178-.035-.178-.173q0-3.207,0-6.414c0-.123.033-.17.162-.169.451.007.9.009,1.355,0,.158,0,.2.064.193.2s0,.277,0,.415a1.734,1.734,0,0,0,.023.186Z" transform="translate(-920.595 -351.27)"/></g><g transform="translate(17.682 3.39)"><path class="ay" d="M904.731,352.116a.455.455,0,0,1,.041-.1,1.976,1.976,0,0,1,1.559-.739c.133-.009.265.005.4,0s.188.035.174.173c-.041.411-.076.823-.112,1.235-.011.122-.08.153-.2.153a2.082,2.082,0,0,0-.941.109,1.486,1.486,0,0,0-.915,1.4c-.024,1.154-.011,2.308,0,3.461,0,.186-.05.234-.232.23-.469-.014-.939-.009-1.41,0-.132,0-.178-.039-.177-.174q0-3.2,0-6.4c0-.126.027-.184.17-.182q.685.012,1.373,0c.128,0,.165.046.168.168,0,.212.024.424.038.637Z" transform="translate(-902.919 -351.27)"/></g></g></g></g></svg>